<?xml version="1.0" encoding="UTF-8"?>
<!DOCTYPE svg PUBLIC "-//W3C//DTD SVG 1.1//EN" "http://www.w3.org/Graphics/SVG/1.1/DTD/svg11.dtd">
<svg version="1.1" xmlns="http://www.w3.org/2000/svg" xmlns:xlink="http://www.w3.org/1999/xlink" x="0" y="0" width="898" height="1094" viewBox="0, 0, 898, 1094">
  <defs>
    <clipPath id="Clip_1">
      <path d="M0.06,0.31 L897.153,0.31 L897.153,1094 L0.06,1094 z"/>
    </clipPath>
    <clipPath id="Clip_2">
      <path d="M67.24,806.16 L847.692,806.16 L847.692,1086.9 L67.24,1086.9 z"/>
    </clipPath>
  </defs>
  <g id="Layer_1">
    <g clip-path="url(#Clip_1)">
      <path d="M888.099,25.582 L26.834,25.582 C21.833,25.582 17.779,21.904 17.779,17.368 C17.779,12.833 21.833,9.157 26.834,9.157 L888.099,9.157 C893.1,9.157 897.153,12.833 897.153,17.368 C897.153,21.904 893.1,25.582 888.099,25.582" fill="#2D515E"/>
      <path d="M153.296,44.68 C66.786,44.68 25.83,62.581 8.609,277.129 C4.465,328.721 1.692,502.072 0,578.893 L309.756,578.893 C308.063,502.072 305.291,328.721 301.147,277.129 C283.925,62.581 242.971,44.68 156.461,44.68 L153.296,44.68" fill="#8FD1E9"/>
    </g>
    <path d="M171.252,9.17 C167.484,3.817 161.263,0.31 154.234,0.31 C147.4,0.31 141.11,3.609 137.216,9.17 L148.007,9.17 C149.894,8.183 152.021,7.644 154.234,7.644 C156.471,7.644 158.579,8.201 160.437,9.17 C164.748,11.417 167.701,15.922 167.701,21.11 C167.701,28.535 161.66,34.578 154.234,34.578 C152.21,34.578 150.566,36.22 150.566,38.245 L150.566,52.606 C150.566,54.631 152.21,56.275 154.234,56.275 C156.26,56.275 157.902,54.631 157.902,52.606 L157.902,41.587 C167.63,39.851 175.036,31.33 175.036,21.11 C175.036,16.668 173.632,12.552 171.252,9.17" fill="#00A3DA"/>
    <path d="M737.896,44.68 C651.391,44.68 610.432,62.581 593.212,277.129 C589.066,328.721 586.294,502.072 584.601,578.893 L894.358,578.893 C892.665,502.072 889.895,328.721 885.749,277.129 C868.529,62.581 827.57,44.68 741.062,44.68 L737.896,44.68" fill="#8FD1E9"/>
    <path d="M755.853,9.17 C752.087,3.817 745.864,0.31 738.836,0.31 C732.003,0.31 725.711,3.609 721.816,9.17 L732.608,9.17 C734.496,8.183 736.621,7.644 738.836,7.644 C741.073,7.644 743.181,8.201 745.038,9.17 C749.35,11.417 752.305,15.922 752.305,21.11 C752.305,28.535 746.261,34.578 738.836,34.578 C736.813,34.578 735.169,36.22 735.169,38.245 L735.169,52.606 C735.169,54.631 736.813,56.275 738.836,56.275 C740.862,56.275 742.505,54.631 742.505,52.606 L742.505,41.587 C752.23,39.851 759.639,31.33 759.639,21.11 C759.639,16.668 758.233,12.552 755.853,9.17" fill="#00A3DA"/>
    <path d="M299.446,44.68 C212.939,44.68 171.981,62.581 154.762,277.129 C150.616,328.721 147.845,502.072 146.149,578.893 L455.907,578.893 C454.213,502.072 451.441,328.721 447.297,277.129 C430.077,62.581 389.12,44.68 302.612,44.68 L299.446,44.68" fill="#B9E1ED"/>
    <path d="M317.402,9.17 C313.637,3.817 307.414,0.31 300.386,0.31 C293.552,0.31 287.26,3.609 283.365,9.17 L294.156,9.17 C296.045,8.183 298.171,7.644 300.386,7.644 C302.622,7.644 304.729,8.201 306.586,9.17 C310.897,11.417 313.853,15.922 313.853,21.11 C313.853,28.535 307.812,34.578 300.386,34.578 C298.361,34.578 296.717,36.22 296.717,38.245 L296.717,52.606 C296.717,54.631 298.361,56.275 300.386,56.275 C302.411,56.275 304.052,54.631 304.052,52.606 L304.052,41.587 C313.781,39.851 321.188,31.33 321.188,21.11 C321.188,16.668 319.783,12.552 317.402,9.17" fill="#00A3DA"/>
    <path d="M591.747,44.68 C505.239,44.68 464.281,62.581 447.062,277.129 C442.917,328.721 440.145,502.072 438.451,578.893 L748.208,578.893 C746.516,502.072 743.742,328.721 739.597,277.129 C722.376,62.581 681.42,44.68 594.912,44.68 L591.747,44.68" fill="#B9E1ED"/>
    <path d="M609.704,9.17 C605.937,3.817 599.714,0.31 592.687,0.31 C585.852,0.31 579.562,3.609 575.666,9.17 L586.457,9.17 C588.346,8.183 590.471,7.644 592.687,7.644 C594.923,7.644 597.031,8.201 598.886,9.17 C603.197,11.417 606.155,15.922 606.155,21.11 C606.155,28.535 600.112,34.578 592.687,34.578 C590.66,34.578 589.019,36.22 589.019,38.245 L589.019,52.606 C589.019,54.631 590.66,56.275 592.687,56.275 C594.71,56.275 596.353,54.631 596.353,52.606 L596.353,41.587 C606.081,39.851 613.487,31.33 613.487,21.11 C613.487,16.668 612.084,12.552 609.704,9.17" fill="#00A3DA"/>
    <path d="M445.596,44.68 C359.09,44.68 318.132,62.581 300.911,277.129 C296.766,328.721 293.996,502.072 292.3,578.893 L602.059,578.893 C600.366,502.072 597.591,328.721 593.448,277.129 C576.227,62.581 535.27,44.68 448.762,44.68 L445.596,44.68" fill="#8FD1E9"/>
    <path d="M463.552,9.17 C459.786,3.817 453.564,0.31 446.536,0.31 C439.701,0.31 433.411,3.609 429.515,9.17 L440.308,9.17 C442.194,8.183 444.32,7.644 446.536,7.644 C448.771,7.644 450.879,8.201 452.736,9.17 C457.048,11.417 460.004,15.922 460.004,21.11 C460.004,28.535 453.961,34.578 446.536,34.578 C444.511,34.578 442.866,36.22 442.866,38.245 L442.866,52.606 C442.866,54.631 444.511,56.275 446.536,56.275 C448.561,56.275 450.203,54.631 450.203,52.606 L450.203,41.587 C459.931,39.851 467.338,31.33 467.338,21.11 C467.338,16.668 465.933,12.552 463.552,9.17" fill="#00A3DA"/>
    <g>
      <path d="M862.729,384.829 L785.381,498.153 M860.255,429.396 L802.444,514.094 M858.363,469.971 L820.467,525.498" fill-opacity="0" stroke="#B9E1ED" stroke-width="7.094" stroke-linecap="round" stroke-linejoin="round"/>
      <path d="M406.587,1021.58 C386.332,1042.91 349.843,1058.55 335.806,1045.22 C321.769,1031.89 335.499,994.639 355.754,973.309 C376.009,951.979 403.81,945.493 417.847,958.822 C431.885,972.153 426.843,1000.25 406.587,1021.58" fill="#865B37"/>
      <path d="M406.587,1021.58 C386.332,1042.91 349.843,1058.55 335.806,1045.22 C321.769,1031.89 335.499,994.639 355.754,973.309 C376.009,951.979 403.81,945.493 417.847,958.822 C431.885,972.153 426.843,1000.25 406.587,1021.58 z" fill-opacity="0" stroke="#1A1919" stroke-width="7.094" stroke-linecap="round" stroke-linejoin="round"/>
    </g>
    <path d="M508.859,1021.58 C529.116,1042.91 565.604,1058.55 579.642,1045.22 C593.68,1031.89 579.948,994.639 559.694,973.309 C539.438,951.979 511.638,945.493 497.601,958.822 C483.563,972.153 488.604,1000.25 508.859,1021.58" fill="#865B37"/>
    <path d="M508.859,1021.58 C529.116,1042.91 565.604,1058.55 579.642,1045.22 C593.68,1031.89 579.948,994.639 559.694,973.309 C539.438,951.979 511.638,945.493 497.601,958.822 C483.563,972.153 488.604,1000.25 508.859,1021.58 z" fill-opacity="0" stroke="#1A1919" stroke-width="7.094" stroke-linecap="round" stroke-linejoin="round"/>
    <path d="M522.562,592.614 C522.562,592.614 543.635,830.98 588.662,974.109 C542.668,991.547 516.099,990.883 465.176,981.424 C478.526,715.26 461.619,643.597 461.619,643.597 L453.313,643.597 C453.313,643.597 436.405,715.26 449.757,981.424 C398.833,990.883 372.265,991.547 326.27,974.109 C371.297,830.98 392.369,592.614 392.369,592.614 L522.562,592.614" fill="#283278"/>
    <path d="M522.562,592.614 C522.562,592.614 543.635,830.98 588.662,974.109 C542.668,991.547 516.099,990.883 465.176,981.424 C478.526,715.26 461.619,643.597 461.619,643.597 L453.313,643.597 C453.313,643.597 436.405,715.26 449.757,981.424 C398.833,990.883 372.265,991.547 326.27,974.109 C371.297,830.98 392.369,592.614 392.369,592.614 L522.562,592.614 z" fill-opacity="0" stroke="#1A1919" stroke-width="7.094" stroke-linecap="round" stroke-linejoin="round"/>
    <path d="M702.423,600.808 C716.326,604.145 710.745,617.817 705.203,616.38 C699.663,614.944 700.881,613.923 687.162,610.808 C700.225,614.415 710.31,618.794 714.057,620.08 C722.307,622.913 717.628,634.241 710.978,632.64 C706.531,631.57 679.866,621.479 676.171,621.395 C687.747,625.088 707.057,632.894 712.702,635.595 C718.366,638.303 713.318,652.957 701.989,647.294 C695.939,644.268 665.587,631.59 665.587,631.59 C665.587,631.59 688.321,642.367 693,644.46 C696.688,646.111 693.492,657.513 687.829,655.914 C682.617,654.441 678.235,651.929 664.432,646.431 C652.097,641.52 636.973,636.108 637.672,640.028 C638.37,643.95 659.924,653.93 649.604,662.688 C641.283,669.747 637.976,657.116 624.412,654.307 C608.379,650.991 596.104,642.318 592.865,625.835 C589.626,609.352 603.643,580.509 635.168,582.429 C653.547,582.704 697.543,599.638 702.423,600.808" fill="#F7CEB9"/>
    <path d="M702.423,600.808 C716.326,604.145 710.745,617.817 705.203,616.38 C699.663,614.944 700.881,613.923 687.162,610.808 C700.225,614.415 710.31,618.794 714.057,620.08 C722.307,622.913 717.628,634.241 710.978,632.64 C706.531,631.57 679.866,621.479 676.171,621.395 C687.747,625.088 707.057,632.894 712.702,635.595 C718.366,638.303 713.318,652.957 701.989,647.294 C695.939,644.268 665.587,631.59 665.587,631.59 C665.587,631.59 688.321,642.367 693,644.46 C696.688,646.111 693.492,657.513 687.829,655.914 C682.617,654.441 678.235,651.929 664.432,646.431 C652.097,641.52 636.973,636.108 637.672,640.028 C638.37,643.95 659.924,653.93 649.604,662.688 C641.283,669.747 637.976,657.116 624.412,654.307 C608.379,650.991 596.104,642.318 592.865,625.835 C589.626,609.352 603.643,580.509 635.168,582.429 C653.547,582.704 697.543,599.638 702.423,600.808 z" fill-opacity="0" stroke="#1A1919" stroke-width="7.094" stroke-linecap="round" stroke-linejoin="round"/>
    <path d="M523.213,365.401 L633.219,598.323 L604.987,615.323 L498.101,390.79 L523.213,365.401" fill="#F7CEB9"/>
    <path d="M523.213,365.401 L633.219,598.323 L604.987,615.323 L498.101,390.79 L523.213,365.401 z" fill-opacity="0" stroke="#1A1919" stroke-width="7.094" stroke-linecap="round" stroke-linejoin="round"/>
    <path d="M523.127,364.93 L642.626,584.325 C642.626,584.325 647.631,595.169 625.524,607.474 C603.418,619.779 587.151,616.024 587.151,616.024 L498.935,397.463 L523.127,364.93" fill="#FFF47A"/>
    <path d="M523.127,364.93 L642.626,584.325 C642.626,584.325 647.631,595.169 625.524,607.474 C603.418,619.779 587.151,616.024 587.151,616.024 L498.935,397.463 L523.127,364.93 z" fill-opacity="0" stroke="#1A1919" stroke-width="7.094" stroke-linecap="round" stroke-linejoin="round"/>
    <path d="M392.203,364.782 C386.085,368.674 306.559,458.768 306.559,458.768 L244.271,395.926 L219.802,419.839 C219.802,419.839 277.64,496.584 306.559,496.029 C336.027,495.461 391.09,421.786 391.09,421.786 L392.203,364.782" fill="#F7CEB9"/>
    <path d="M392.203,364.782 C386.085,368.674 306.559,458.768 306.559,458.768 L244.271,395.926 L219.802,419.839 C219.802,419.839 277.64,496.584 306.559,496.029 C336.027,495.461 391.09,421.786 391.09,421.786 L392.203,364.782 z" fill-opacity="0" stroke="#1A1919" stroke-width="7.094" stroke-linecap="round" stroke-linejoin="round"/>
    <path d="M388.866,365.06 C388.866,365.06 313.93,452.928 307.114,452.928 C300.3,452.928 248.742,380.989 248.742,380.989 L202.005,425.817 C202.005,425.817 269.575,506.318 311.286,500.478 C352.225,494.747 406.94,401.486 406.94,401.486 L388.866,365.06" fill="#FFF47A"/>
    <path d="M388.866,365.06 C388.866,365.06 313.93,452.928 307.114,452.928 C300.3,452.928 248.742,380.989 248.742,380.989 L202.005,425.817 C202.005,425.817 269.575,506.318 311.286,500.478 C352.225,494.747 406.94,401.486 406.94,401.486 L388.866,365.06 z" fill-opacity="0" stroke="#1A1919" stroke-width="7.094" stroke-linecap="round" stroke-linejoin="round"/>
    <path d="M145.558,410.941 C131.654,407.604 137.236,393.933 142.777,395.369 C148.318,396.805 147.1,397.827 160.818,400.941 C147.756,397.333 137.672,392.956 133.924,391.669 C125.674,388.837 130.354,377.509 137.002,379.11 C141.449,380.18 168.115,390.27 171.81,390.354 C160.233,386.662 140.925,378.855 135.278,376.154 C129.614,373.445 134.663,358.791 145.99,364.456 C152.041,367.481 182.394,380.159 182.394,380.159 C182.394,380.159 159.66,369.381 154.98,367.289 C151.293,365.639 154.487,354.236 160.152,355.836 C165.363,357.31 169.744,359.821 183.548,365.319 C195.885,370.229 211.008,375.643 210.31,371.722 C209.61,367.8 188.057,357.819 198.378,349.062 C206.697,342.002 210.006,354.634 223.569,357.443 C239.603,360.759 251.878,369.432 255.116,385.915 C258.354,402.397 244.338,431.24 212.813,429.32 C194.434,429.046 150.438,412.112 145.558,410.941" fill="#F7CEB9"/>
    <path d="M145.558,410.941 C131.654,407.604 137.236,393.933 142.777,395.369 C148.318,396.805 147.1,397.827 160.818,400.941 C147.756,397.333 137.672,392.956 133.924,391.669 C125.674,388.837 130.354,377.509 137.002,379.11 C141.449,380.18 168.115,390.27 171.81,390.354 C160.233,386.662 140.925,378.855 135.278,376.154 C129.614,373.445 134.663,358.791 145.99,364.456 C152.041,367.481 182.394,380.159 182.394,380.159 C182.394,380.159 159.66,369.381 154.98,367.289 C151.293,365.639 154.487,354.236 160.152,355.836 C165.363,357.31 169.744,359.821 183.548,365.319 C195.885,370.229 211.008,375.643 210.31,371.722 C209.61,367.8 188.057,357.819 198.378,349.062 C206.697,342.002 210.006,354.634 223.569,357.443 C239.603,360.759 251.878,369.432 255.116,385.915 C258.354,402.397 244.338,431.24 212.813,429.32 C194.434,429.046 150.438,412.112 145.558,410.941 z M207.313,403.368 C203.619,401.52 183.179,398.442 174.929,402.382" fill-opacity="0" stroke="#1A1919" stroke-width="7.094" stroke-linecap="round" stroke-linejoin="round"/>
    <path d="M457.475,335.945 L471.243,335.945 L472.486,353.421 L506.198,364.974 L506.198,392.956 L408.731,392.956 L408.731,364.974 L442.444,353.421 L443.688,335.945 L457.475,335.945" fill="#F7D0BA"/>
    <path d="M457.475,335.945 L471.243,335.945 L472.486,353.421 L506.198,364.974 L506.198,392.956 L408.731,392.956 L408.731,364.974 L442.444,353.421 L443.688,335.945 L457.475,335.945 z" fill-opacity="0" stroke="#1A1919" stroke-width="7.094" stroke-linecap="round" stroke-linejoin="round"/>
    <path d="M416.183,359.982 C416.183,379.232 434.506,390.72 457.47,390.72 C480.434,390.72 499.342,379.232 499.342,359.982 L522.508,367.482 L535.575,602.052 C535.575,602.052 508.579,624.999 457.381,624.999 C406.183,624.999 379.355,602.052 379.355,602.052 L393.019,368.774 L416.183,359.982" fill="#FFF47A"/>
    <path d="M416.183,359.982 C416.183,379.232 434.506,390.72 457.47,390.72 C480.434,390.72 499.342,379.232 499.342,359.982 L522.508,367.482 L535.575,602.052 C535.575,602.052 508.579,624.999 457.381,624.999 C406.183,624.999 379.355,602.052 379.355,602.052 L393.019,368.774 L416.183,359.982 z" fill-opacity="0" stroke="#1A1919" stroke-width="7.094" stroke-linecap="round" stroke-linejoin="round"/>
    <path d="M575.73,739.239 C575.615,738.664 572.748,724.055 568.428,701.801 C554.884,632.028 527.07,425.243 525.197,402.539 C522.715,372.45 525.876,362.59 525.876,362.59 L500.095,356.329 L498.755,393.397 C498.755,393.397 496.67,406.146 457.438,406.146 C418.206,406.146 416.177,393.397 416.177,393.397 L414.838,356.329 L389.058,362.59 C389.058,362.59 392.219,372.45 389.735,402.539 C387.86,425.243 360.048,632.028 346.504,701.801 C342.184,724.055 339.314,738.664 339.202,739.239 C339.2,739.249 339.197,739.268 339.197,739.268 L339.298,739.268 C370.023,748.134 411.643,753.581 457.467,753.581 C503.29,753.581 544.908,748.134 575.636,739.268 L575.735,739.268 C575.735,739.268 575.731,739.249 575.73,739.239" fill="#E05541"/>
    <path d="M575.73,739.239 C575.615,738.664 572.748,724.055 568.428,701.801 C554.884,632.028 527.07,425.243 525.197,402.539 C522.715,372.45 525.876,362.59 525.876,362.59 L500.095,356.329 L498.755,393.397 C498.755,393.397 496.67,406.146 457.438,406.146 C418.206,406.146 416.177,393.397 416.177,393.397 L414.838,356.329 L389.058,362.59 C389.058,362.59 392.219,372.45 389.735,402.539 C387.86,425.243 360.048,632.028 346.504,701.801 C342.184,724.055 339.314,738.664 339.202,739.239 C339.2,739.249 339.197,739.268 339.197,739.268 L339.298,739.268 C370.023,748.134 411.643,753.581 457.467,753.581 C503.29,753.581 544.908,748.134 575.636,739.268 L575.735,739.268 C575.735,739.268 575.731,739.249 575.73,739.239 z" fill-opacity="0" stroke="#1A1919" stroke-width="7.094" stroke-linecap="round" stroke-linejoin="round"/>
    <g clip-path="url(#Clip_2)">
      <path d="M67.24,816.166 L847.692,816.166 L847.692,1086.9 L67.24,1086.9 z" fill="#FFEFCB"/>
      <path d="M67.24,851.745 L847.692,851.745 L847.692,1051.33 L67.24,1051.33 z" fill="#00A3DA"/>
    </g>
    <path d="M134.938,869.261 L779.995,869.261 L779.995,1033.81 L134.938,1033.81 z" fill="#F1F9FB"/>
    <path d="M123.233,887.673 L791.699,887.673 L791.699,1015.4 L123.233,1015.4 z" fill="#00A3DA"/>
    <path d="M134.938,901.794 L779.995,901.794 L779.995,1001.28 L134.938,1001.28 z" fill="#F1F9FB"/>
    <path d="M325.34,989.45 L279.816,989.45 L279.816,915.993 M393.625,989.45 L348.102,989.45 L348.102,915.993 L393.625,915.993 M395.694,952.72 L348.102,952.72 M500.91,989.45 L500.91,915.993 L546.434,989.45 L546.434,916.162 M568.159,989.45 L568.159,916.162 M593.439,989.45 L593.439,915.993 L638.962,989.45 L638.962,916.162 M250.217,936.205 C244.152,924.408 231.869,916.333 217.691,916.333 C197.501,916.333 181.133,932.701 181.133,952.891 C181.133,973.083 197.501,989.45 217.691,989.45 C231.869,989.45 244.152,981.374 250.217,969.578 M733.8,945.684 C730.451,928.946 715.678,916.333 697.954,916.333 C677.764,916.333 661.396,932.701 661.396,952.891 C661.396,973.083 677.764,989.45 697.954,989.45 C715.678,989.45 730.451,976.837 733.8,960.099 L704.425,960.099 M416.233,989.45 L447.212,914.734 L478.189,989.45 M426.509,965.887 L468.095,965.887" fill-opacity="0" stroke="#DF5693" stroke-width="11.823" stroke-linecap="round" stroke-linejoin="round"/>
    <path d="M67.24,809.707 L847.692,809.707 L847.692,1090.45 L67.24,1090.45 z" fill-opacity="0" stroke="#1A1919" stroke-width="7.094" stroke-linecap="round" stroke-linejoin="round"/>
    <path d="M883.527,777.091 L31.405,777.091 L78.698,552.477 L836.233,552.477 L883.527,777.091" fill="#FFEFCB"/>
    <path d="M883.527,777.091 L31.405,777.091 L78.698,552.477 L836.233,552.477 L883.527,777.091 z" fill-opacity="0" stroke="#1A1919" stroke-width="7.094" stroke-linecap="round" stroke-linejoin="round"/>
    <path d="M31.405,777.091 L883.527,777.091 L883.527,816.166 L31.405,816.166 z" fill="#EECD97"/>
    <path d="M31.405,777.091 L883.527,777.091 L883.527,816.166 L31.405,816.166 z" fill-opacity="0" stroke="#1A1919" stroke-width="7.094" stroke-linecap="round" stroke-linejoin="round"/>
    <path d="M664.799,540.197 L581.19,540.197 C577.425,540.197 574.423,543.277 574.519,547.039 L558.403,721.303 C558.5,725.068 561.656,728.147 565.42,728.147 L764.179,728.147 C767.943,728.147 771.101,725.068 771.195,721.303 L755.081,547.039 C755.177,543.277 752.174,540.197 748.409,540.197 L664.799,540.197" fill="#FFFFFE"/>
    <path d="M664.799,540.197 L581.19,540.197 C577.425,540.197 574.423,543.277 574.519,547.039 L558.403,721.303 C558.5,725.068 561.656,728.147 565.42,728.147 L764.179,728.147 C767.943,728.147 771.101,725.068 771.195,721.303 L755.081,547.039 C755.177,543.277 752.174,540.197 748.409,540.197 L664.799,540.197 z" fill-opacity="0" stroke="#343534" stroke-width="7.094" stroke-linecap="round" stroke-linejoin="round"/>
    <path d="M664.799,526.05 L581.19,526.05 C577.425,526.05 574.423,529.129 574.519,532.892 L558.403,707.156 C558.5,710.92 561.656,713.999 565.42,713.999 L764.179,713.999 C767.943,713.999 771.101,710.92 771.195,707.156 L755.081,532.892 C755.177,529.129 752.174,526.05 748.409,526.05 L664.799,526.05" fill="#FFFFFE"/>
    <path d="M664.799,526.05 L581.19,526.05 C577.425,526.05 574.423,529.129 574.519,532.892 L558.403,707.156 C558.5,710.92 561.656,713.999 565.42,713.999 L764.179,713.999 C767.943,713.999 771.101,710.92 771.195,707.156 L755.081,532.892 C755.177,529.129 752.174,526.05 748.409,526.05 L664.799,526.05 z" fill-opacity="0" stroke="#343534" stroke-width="7.094" stroke-linecap="round" stroke-linejoin="round"/>
    <path d="M664.799,511.912 L581.19,511.912 C577.425,511.912 574.423,514.991 574.519,518.754 L558.403,693.017 C558.5,696.781 561.656,699.86 565.42,699.86 L764.179,699.86 C767.943,699.86 771.101,696.781 771.195,693.017 L755.081,518.754 C755.177,514.991 752.174,511.912 748.409,511.912 L664.799,511.912" fill="#FFFFFE"/>
    <path d="M664.799,511.912 L581.19,511.912 C577.425,511.912 574.423,514.991 574.519,518.754 L558.403,693.017 C558.5,696.781 561.656,699.86 565.42,699.86 L764.179,699.86 C767.943,699.86 771.101,696.781 771.195,693.017 L755.081,518.754 C755.177,514.991 752.174,511.912 748.409,511.912 L664.799,511.912 z" fill-opacity="0" stroke="#343534" stroke-width="7.094" stroke-linecap="round" stroke-linejoin="round"/>
    <path d="M664.799,522.379 L591.393,522.379 C587.784,522.379 584.907,525.33 584.998,528.937 L569.224,682.818 C569.314,686.424 572.341,689.376 575.948,689.376 L753.65,689.376 C757.259,689.376 760.285,686.424 760.376,682.818 L744.602,528.937 C744.691,525.33 741.814,522.379 738.207,522.379 L664.799,522.379" fill="#FFFFFE"/>
    <path d="M664.799,522.379 L591.393,522.379 C587.784,522.379 584.907,525.33 584.998,528.937 L569.224,682.818 C569.314,686.424 572.341,689.376 575.948,689.376 L753.65,689.376 C757.259,689.376 760.285,686.424 760.376,682.818 L744.602,528.937 C744.691,525.33 741.814,522.379 738.207,522.379 L664.799,522.379 M633.311,689.376 C633.24,686.25 631.285,655.134 664.799,655.119 C698.313,655.134 696.359,686.25 696.289,689.376" fill-opacity="0" stroke="#343534" stroke-width="3.857" stroke-linecap="round" stroke-linejoin="round"/>
    <path d="M690.172,642.651 C701.743,647.149 712.664,674.146 710.103,688.933 C712.664,674.146 701.743,647.149 690.172,642.651 C678.604,638.148 666.069,654.862 666.069,654.862 C666.069,654.862 678.604,638.148 690.172,642.651" fill="#FFFFFE"/>
    <path d="M690.172,642.651 C701.743,647.149 712.664,674.146 710.103,688.933 C712.664,674.146 701.743,647.149 690.172,642.651 C678.604,638.148 666.069,654.862 666.069,654.862 C666.069,654.862 678.604,638.148 690.172,642.651 z" fill-opacity="0" stroke="#343534" stroke-width="3.857" stroke-linecap="round" stroke-linejoin="round"/>
    <path d="M663.529,654.862 C663.529,654.862 650.995,638.148 639.427,642.651 C627.856,647.149 616.936,674.146 619.496,688.933 C616.936,674.146 627.856,647.149 639.427,642.651 C650.995,638.148 663.529,654.862 663.529,654.862" fill="#FFFFFE"/>
    <path d="M663.529,654.862 C663.529,654.862 650.995,638.148 639.427,642.651 C627.856,647.149 616.936,674.146 619.496,688.933 C616.936,674.146 627.856,647.149 639.427,642.651 C650.995,638.148 663.529,654.862 663.529,654.862 z M664.563,644.33 L664.563,533.104" fill-opacity="0" stroke="#343534" stroke-width="3.857" stroke-linecap="round" stroke-linejoin="round"/>
    <path d="M653.059,542.088 L706.023,582.93" fill-opacity="0" stroke="#FFFFFE" stroke-width="15.427" stroke-linecap="round" stroke-linejoin="round"/>
    <path d="M653.059,542.088 L706.023,582.93" fill-opacity="0" stroke="#343534" stroke-width="3.857" stroke-linecap="round" stroke-linejoin="round"/>
    <path d="M629.179,542.088 L741.3,643.475 M600.512,542.088 L705.215,648.514" fill-opacity="0" stroke="#FFFFFE" stroke-width="15.427" stroke-linecap="round" stroke-linejoin="round"/>
    <path d="M629.179,542.088 L741.3,643.475" fill="#FFFFFE"/>
    <path d="M629.179,542.088 L741.3,643.475" fill-opacity="0" stroke="#343534" stroke-width="3.857" stroke-linecap="round" stroke-linejoin="round"/>
    <path d="M600.512,542.088 L705.215,648.514" fill="#FFFFFE"/>
    <path d="M600.512,542.088 L705.215,648.514" fill-opacity="0" stroke="#343534" stroke-width="3.857" stroke-linecap="round" stroke-linejoin="round"/>
    <path d="M605.639,279.706 C630.796,323.281 594.346,367.925 626.768,405.588 C591.053,408.936 536.185,360.799 528.315,324.349 C523.111,300.249 523.304,275.694 544.655,263.366 C566.01,251.039 593.311,258.354 605.639,279.706" fill="#865B37"/>
    <path d="M605.639,279.706 C630.796,323.281 594.346,367.925 626.768,405.588 C591.053,408.936 536.185,360.799 528.315,324.349 C523.111,300.249 523.304,275.694 544.655,263.366 C566.01,251.039 593.311,258.354 605.639,279.706 z" fill-opacity="0" stroke="#1A1919" stroke-width="7.094" stroke-linecap="round" stroke-linejoin="round"/>
    <path d="M585.957,211.591 C585.957,281.401 521.72,331.843 456.494,331.843 C391.267,331.843 327.031,281.401 327.031,211.591 C327.031,141.783 384.994,85.19 456.494,85.19 C527.994,85.19 585.957,141.783 585.957,211.591" fill="#865B37"/>
    <path d="M585.957,211.591 C585.957,281.401 521.72,331.843 456.494,331.843 C391.267,331.843 327.031,281.401 327.031,211.591 C327.031,141.783 384.994,85.19 456.494,85.19 C527.994,85.19 585.957,141.783 585.957,211.591 z" fill-opacity="0" stroke="#1A1919" stroke-width="7.094" stroke-linecap="round" stroke-linejoin="round"/>
    <path d="M553.136,246.936 C560.582,240.804 574.742,232.921 583.793,247.52 C592.844,262.119 566.712,295.987 550.8,279.052 C538.62,266.092 553.136,246.936 553.136,246.936" fill="#F7CEB9"/>
    <path d="M553.136,246.936 C560.582,240.804 574.742,232.921 583.793,247.52 C592.844,262.119 566.712,295.987 550.8,279.052 C538.62,266.092 553.136,246.936 553.136,246.936 z" fill-opacity="0" stroke="#1A1919" stroke-width="7.094" stroke-linecap="round" stroke-linejoin="round"/>
    <path d="M359.853,246.936 C352.407,240.804 338.246,232.921 329.194,247.52 C320.145,262.119 346.275,295.987 362.188,279.052 C374.366,266.092 359.853,246.936 359.853,246.936" fill="#F7CEB9"/>
    <path d="M359.853,246.936 C352.407,240.804 338.246,232.921 329.194,247.52 C320.145,262.119 346.275,295.987 362.188,279.052 C374.366,266.092 359.853,246.936 359.853,246.936 z" fill-opacity="0" stroke="#1A1919" stroke-width="7.094" stroke-linecap="round" stroke-linejoin="round"/>
    <path d="M563.702,226.055 C563.702,290.871 516.752,343.414 456.494,343.414 C396.236,343.414 349.285,290.871 349.285,226.055 C349.285,161.241 397.284,108.697 456.494,108.697 C515.702,108.697 563.702,161.241 563.702,226.055" fill="#F7CEB9"/>
    <path d="M563.702,226.055 C563.702,290.871 516.752,343.414 456.494,343.414 C396.236,343.414 349.285,290.871 349.285,226.055 C349.285,161.241 397.284,108.697 456.494,108.697 C515.702,108.697 563.702,161.241 563.702,226.055 z M456.494,268.973 C456.494,268.973 455.399,274.886 451.895,280.395 L456.688,282.057" fill-opacity="0" stroke="#1A1919" stroke-width="7.094" stroke-linecap="round" stroke-linejoin="round"/>
    <path d="M533.138,291.105 C533.138,301.421 524.779,309.787 514.456,309.787 C504.147,309.787 495.774,301.421 495.774,291.105 C495.774,280.789 504.147,272.423 514.456,272.423 C524.779,272.423 533.138,280.789 533.138,291.105" fill="#F1AF9C"/>
    <path d="M379.849,291.105 C379.849,301.421 388.207,309.787 398.53,309.787 C408.839,309.787 417.212,301.421 417.212,291.105 C417.212,280.789 408.839,272.423 398.53,272.423 C388.207,272.423 379.849,280.789 379.849,291.105" fill="#F1AF9C"/>
    <path d="M426.97,253.101 C426.97,262.431 420.624,270.003 412.781,270.003 C404.955,270.003 398.596,262.431 398.596,253.101 C398.596,243.763 404.955,236.198 412.781,236.198 C420.624,236.198 426.97,243.763 426.97,253.101" fill="#1A1919"/>
    <path d="M514.392,253.101 C514.392,262.431 508.047,270.003 500.205,270.003 C492.378,270.003 486.019,262.431 486.019,253.101 C486.019,243.763 492.378,236.198 500.205,236.198 C508.047,236.198 514.392,243.763 514.392,253.101" fill="#1A1919"/>
    <path d="M517.557,225.069 C517.557,225.069 511.106,217.585 503.039,217.585 C494.971,217.585 492.034,222.199 492.034,222.199 C492.034,222.199 497.527,219.262 503.11,219.262 C508.694,219.262 517.557,225.069 517.557,225.069" fill="#1A1919"/>
    <path d="M517.557,225.069 C517.557,225.069 511.106,217.585 503.039,217.585 C494.971,217.585 492.034,222.199 492.034,222.199 C492.034,222.199 497.527,219.262 503.11,219.262 C508.694,219.262 517.557,225.069 517.557,225.069 z" fill-opacity="0" stroke="#1A1919" stroke-width="2.365" stroke-linecap="round" stroke-linejoin="round"/>
    <path d="M479.131,299.17 C479.131,311.673 467.785,321.808 456.494,321.808 C445.201,321.808 433.855,311.673 433.855,299.17 L479.131,299.17" fill="#E0564C"/>
    <path d="M479.131,299.17 C479.131,311.673 467.785,321.808 456.494,321.808 C445.201,321.808 433.855,311.673 433.855,299.17 L479.131,299.17 z" fill-opacity="0" stroke="#1A1919" stroke-width="7.094" stroke-linecap="round" stroke-linejoin="round"/>
    <path d="M553.43,162.994 C575.327,203.287 575.327,245.767 547.734,317.154 C544.472,313.482 540.446,238.358 539.912,228.103 C539.873,227.352 539.853,226.935 539.853,226.935 L539.862,226.887 C518.662,219.694 511.637,199.429 506.421,175.549 C480.946,206.443 410.205,220.231 373.091,226.721 L373.137,226.935 L373.075,228.103 C372.54,238.358 368.518,313.482 365.252,317.154 C337.661,245.767 337.661,203.287 359.559,162.994 C359.559,162.994 374.13,95.984 456.041,95.984 C537.952,95.984 533.836,147.483 553.43,162.994" fill="#865B37"/>
    <path d="M553.43,162.994 C575.327,203.287 575.327,245.767 547.734,317.154 C544.472,313.482 540.446,238.358 539.912,228.103 C539.873,227.352 539.853,226.935 539.853,226.935 L539.862,226.887 C518.662,219.694 511.637,199.429 506.421,175.549 C480.946,206.443 410.205,220.231 373.091,226.721 L373.137,226.935 L373.075,228.103 C372.54,238.358 368.518,313.482 365.252,317.154 C337.661,245.767 337.661,203.287 359.559,162.994" fill-opacity="0" stroke="#1A1919" stroke-width="7.094" stroke-linecap="round" stroke-linejoin="round"/>
    <path d="M530.374,124.835 C530.85,126.673 530.773,128.697 530.376,130.648 C529.958,132.6 529.231,134.497 528.305,136.272 C526.459,139.845 523.914,142.974 521.134,145.788 C515.512,151.39 508.835,155.692 501.83,159.134 C487.729,165.928 472.143,169.208 456.464,169.234 C440.913,169.231 425.229,165.949 411.154,159.154 C404.146,155.715 397.467,151.411 391.846,145.804 C389.067,142.987 386.521,139.856 384.677,136.28 C383.752,134.502 383.025,132.604 382.609,130.651 C382.214,128.698 382.139,126.673 382.618,124.835 C383.586,128.502 385.868,131.21 388.375,133.52 C390.929,135.809 393.802,137.706 396.809,139.359 C402.83,142.663 409.311,145.112 415.907,147.038 C429.137,150.88 442.813,152.651 456.528,152.686 C470.115,152.673 483.889,150.901 497.093,147.059 C503.692,145.135 510.175,142.684 516.196,139.375 C519.203,137.719 522.075,135.82 524.628,133.528 C527.134,131.215 529.413,128.502 530.374,124.835" fill="#956949"/>
  </g>
</svg>
